<svg width="337" height="340" viewBox="0 0 337 340" fill="none" xmlns="http://www.w3.org/2000/svg">
<path fill-rule="evenodd" clip-rule="evenodd" d="M177.99 339.704C174.685 339.901 171.354 340 168 340C75.2162 340 0 263.888 0 170C0 76.1116 75.2162 0 168 0C258.799 0 332.774 72.8903 335.897 164H336.104V307.5L332.104 339.5C307.178 322.813 296.51 308.86 292.357 292.687L289.954 162.5L289.71 162.912C285.353 98.7112 232.527 48 168 48C100.621 48 46 103.293 46 171.5C46 187.248 48.9118 202.308 54.2201 216.158C84.2087 263.855 134.503 281.092 242.668 267.852L242.094 274.11C236.282 306.961 211.707 334.24 177.99 339.704ZM168 221C195.614 221 218 198.614 218 171C218 143.386 195.614 121 168 121C140.386 121 118 143.386 118 171C118 198.614 140.386 221 168 221Z" fill="#009FE3"/>
</svg>
